<?xml version="1.0" standalone="no"?>
<!DOCTYPE svg PUBLIC "-//W3C//DTD SVG 20010904//EN"
 "http://www.w3.org/TR/2001/REC-SVG-20010904/DTD/svg10.dtd">
<svg version="1.0" xmlns="http://www.w3.org/2000/svg"
 width="1024.000000pt" height="1024.000000pt" viewBox="0 0 1024.000000 1024.000000"
 preserveAspectRatio="xMidYMid meet">

<g transform="translate(0.000000,1024.000000) scale(0.100000,-0.100000)"
fill="#000000" stroke="none">
<path d="M4943 9189 c-203 -23 -398 -82 -595 -182 -371 -187 -668 -448 -978
-862 -181 -242 -317 -460 -565 -905 -243 -437 -299 -528 -452 -733 -87 -117
-93 -152 -31 -176 15 -5 43 -7 63 -4 l36 6 -7 -104 c-20 -315 -82 -505 -258
-783 -31 -50 -56 -100 -56 -111 0 -36 65 -81 100 -70 42 13 214 322 261 467
13 43 27 78 32 78 12 0 7 -230 -7 -312 -8 -42 -35 -125 -60 -184 -43 -100 -45
-109 -31 -130 16 -26 49 -38 86 -32 30 4 67 71 108 193 56 171 61 327 20 615
-11 74 -23 190 -26 257 l-6 122 29 6 c271 62 409 128 819 395 334 217 502 310
746 410 358 147 621 196 1012 187 271 -5 412 -28 652 -102 340 -106 601 -239
1030 -525 204 -137 323 -206 450 -263 86 -38 227 -83 297 -95 l43 -8 3 -91 c2
-62 -6 -149 -24 -270 -52 -341 -35 -555 60 -746 38 -76 44 -82 74 -85 45 -5
82 21 82 56 0 16 -13 56 -29 89 -69 142 -99 297 -84 438 l8 80 29 -80 c43
-119 117 -268 185 -372 57 -88 62 -93 95 -93 48 0 91 37 83 71 -4 13 -36 71
-71 128 -166 264 -231 474 -237 756 l-2 100 51 3 c52 3 82 25 82 60 0 7 -33
59 -73 115 -166 231 -286 426 -459 746 -254 470 -443 766 -657 1031 -105 129
-337 363 -451 454 -304 242 -613 387 -940 442 -110 19 -332 25 -437 13z m392
-170 c295 -39 640 -203 915 -436 286 -242 545 -564 822 -1023 138 -230 388
-691 388 -718 0 -7 -55 32 -122 86 -624 500 -1098 748 -1668 876 -358 80 -716
82 -1085 6 -229 -47 -525 -150 -750 -261 -283 -138 -522 -296 -866 -571 -115
-92 -209 -164 -209 -160 0 16 333 611 438 782 322 524 667 910 1025 1150 345
230 718 320 1112 269z m-24 -1309 c53 0 61 -3 86 -31 38 -42 143 -192 138
-197 -2 -2 -37 -1 -79 3 l-75 7 -81 107 c-81 108 -92 128 -64 117 9 -3 42 -6
75 -6z m-176 -90 c41 -50 75 -95 75 -100 0 -6 -34 -10 -75 -10 l-75 0 -77 81
c-121 127 -120 119 -14 119 l91 0 75 -90z m-319 -30 c50 -50 89 -92 85 -94 -3
-3 -39 -8 -78 -11 l-71 -7 -105 83 c-58 46 -103 86 -100 89 7 8 105 28 142 29
31 1 45 -9 127 -89z m864 66 c29 -9 46 -29 107 -125 40 -63 72 -116 70 -117
-5 -5 -129 17 -144 25 -7 3 -48 60 -93 125 l-81 118 53 -7 c29 -4 69 -12 88
-19z m-1189 -122 c52 -41 95 -79 97 -84 4 -10 -134 -44 -152 -37 -8 3 -58 38
-112 78 l-97 73 74 22 c41 12 79 22 85 23 6 1 53 -33 105 -75z m1584 -38 c40
-64 108 -197 102 -202 -4 -4 -146 51 -151 58 -1 2 -18 28 -36 58 -18 30 -51
83 -72 117 -21 35 -38 67 -38 72 0 5 37 -5 81 -22 75 -28 84 -35 114 -81z
m-1874 -59 c54 -34 96 -64 94 -68 -2 -3 -32 -14 -66 -24 l-62 -19 -113 58
c-63 31 -114 61 -114 64 0 11 133 60 149 55 8 -2 59 -32 112 -66z m2037 33 c9
-5 41 -19 70 -31 49 -20 56 -27 90 -93 54 -106 94 -197 89 -203 -7 -6 -143 73
-152 88 -19 30 -124 249 -120 249 3 0 13 -4 23 -10z m-2328 -152 c55 -29 100
-55 100 -58 0 -3 -37 -19 -83 -35 l-84 -29 -107 44 c-59 23 -104 46 -99 50 16
15 145 80 159 80 8 0 59 -24 114 -52z"/>
<path d="M5075 8779 c-60 -180 -43 -165 -187 -173 -68 -4 -127 -11 -131 -15
-5 -5 31 -41 80 -81 48 -40 92 -79 96 -87 5 -8 -2 -60 -18 -129 -15 -63 -25
-119 -23 -125 2 -5 53 20 113 57 61 37 115 67 120 67 6 0 56 -28 113 -63 57
-34 106 -60 109 -56 4 4 -5 57 -20 119 -15 62 -27 119 -27 127 1 8 20 30 43
47 109 84 147 115 147 122 0 8 -143 21 -225 21 l-42 0 -47 128 c-25 70 -50
133 -55 141 -6 9 -21 -23 -46 -100z"/>
<path d="M4232 8400 c-19 -55 -40 -106 -47 -114 -10 -9 -53 -16 -135 -21 -66
-4 -120 -10 -120 -14 0 -4 38 -40 85 -80 97 -84 96 -79 64 -213 -12 -49 -19
-91 -17 -93 1 -2 45 23 97 56 52 32 101 59 109 59 8 0 35 -15 61 -34 64 -46
141 -90 147 -83 3 3 -9 58 -26 121 -23 82 -29 120 -22 129 6 6 44 39 86 72 41
33 75 63 76 66 0 4 -53 10 -118 13 l-118 8 -38 114 c-20 63 -41 114 -45 114
-4 0 -21 -45 -39 -100z"/>
<path d="M5946 8458 c-9 -23 -27 -74 -40 -113 l-23 -70 -44 -7 c-24 -3 -77 -7
-117 -7 -41 -1 -72 -5 -70 -10 2 -4 38 -37 81 -71 44 -35 81 -70 85 -78 3 -9
-7 -65 -22 -125 -14 -60 -25 -112 -22 -114 6 -6 60 23 137 74 l67 45 33 -18
c19 -9 64 -37 101 -62 38 -25 71 -43 74 -40 2 3 -9 54 -26 114 -16 60 -30 112
-30 116 0 4 39 39 88 79 48 39 88 75 90 79 3 7 -128 20 -210 20 l-47 0 -19 53
c-11 28 -27 77 -37 107 -24 75 -30 79 -49 28z"/>
<path d="M4555 7105 c-129 -29 -268 -115 -328 -205 l-34 -50 -89 -4 c-142 -6
-265 -59 -368 -159 -63 -62 -116 -142 -141 -212 -15 -42 -27 -56 -73 -85 -167
-107 -271 -306 -272 -519 l0 -73 -52 -57 c-167 -183 -196 -514 -61 -711 l38
-55 1 -140 c1 -103 5 -154 18 -195 52 -163 157 -297 287 -367 40 -21 44 -28
73 -115 38 -112 88 -190 169 -264 106 -95 231 -144 370 -144 78 0 80 -1 124
-40 120 -105 345 -156 508 -115 142 36 282 133 356 247 l37 58 42 -65 c100
-153 257 -242 445 -252 154 -8 278 29 405 123 56 41 64 44 123 44 196 1 380
101 491 269 48 72 73 129 84 195 7 36 14 44 67 75 122 71 219 197 263 342 25
83 36 207 23 279 -9 55 -9 55 34 120 89 133 118 310 76 464 -27 99 -81 197
-142 258 l-47 47 -4 108 c-3 84 -10 125 -31 183 -47 132 -152 259 -254 308
-22 11 -36 27 -44 51 -37 115 -124 226 -232 299 -96 64 -179 92 -289 99 -72 5
-89 9 -93 24 -10 31 -143 148 -205 179 -71 36 -205 70 -276 70 -70 0 -193 -33
-265 -71 -34 -19 -84 -59 -118 -95 l-59 -62 -69 67 c-135 133 -310 185 -488
146z m272 -199 c73 -33 143 -103 176 -174 22 -46 22 -55 25 -647 l3 -600 -63
60 c-35 33 -111 107 -170 165 l-108 105 0 236 0 236 38 24 c45 29 72 80 72
137 0 142 -163 212 -270 116 -78 -71 -78 -158 0 -234 l48 -47 3 -263 4 -263
223 -216 223 -216 -3 -626 -3 -625 -38 -76 c-82 -166 -266 -275 -428 -253
l-49 7 0 416 0 417 -117 112 -118 112 -147 1 -146 0 -21 35 c-13 22 -37 43
-63 55 -172 78 -317 -116 -189 -252 32 -35 45 -41 89 -46 72 -6 98 3 146 53
l43 44 122 2 121 2 84 -79 83 -79 2 -378 1 -378 -29 15 c-16 9 -54 38 -85 67
l-56 51 -79 -7 c-232 -20 -424 133 -464 371 l-13 78 -58 23 c-207 80 -334 339
-270 552 l15 52 -40 50 c-113 142 -137 306 -71 483 17 44 41 78 96 136 l73 76
-5 85 c-7 99 12 195 53 271 37 68 137 160 193 177 25 8 49 18 53 21 5 4 15 38
22 75 18 83 48 137 114 199 72 66 147 98 243 104 l78 5 15 -39 c37 -95 48
-109 85 -109 49 0 62 29 54 120 -9 105 29 178 124 237 105 65 265 75 379 24z
m908 1 c64 -30 137 -93 162 -142 12 -21 15 -55 14 -119 -2 -100 11 -126 60
-126 33 0 54 27 80 104 20 59 29 62 116 47 177 -33 319 -169 338 -326 7 -49
10 -56 34 -61 91 -19 175 -89 227 -190 44 -83 56 -144 52 -255 l-3 -96 66 -65
c78 -76 123 -161 140 -262 20 -121 -17 -265 -94 -360 -47 -58 -47 -56 -31
-116 36 -138 -5 -308 -104 -427 -40 -50 -138 -118 -182 -128 -38 -8 -40 -13
-50 -91 -29 -230 -259 -411 -478 -374 l-67 11 -60 -57 c-83 -78 -159 -114
-251 -121 l-74 -6 0 245 0 244 323 321 323 321 64 -5 c36 -3 67 -11 69 -16 2
-6 21 -29 41 -51 35 -37 42 -40 101 -43 74 -5 116 15 149 69 24 40 27 126 5
168 -21 42 -74 70 -129 70 -53 0 -78 -10 -121 -50 -27 -26 -38 -29 -121 -32
-108 -4 -82 15 -356 -255 l-198 -194 0 98 c0 54 -3 121 -6 148 l-6 50 218 208
217 207 78 0 78 0 101 98 100 97 0 89 0 89 44 47 c73 78 75 166 5 232 -133
127 -334 -26 -249 -191 11 -22 35 -49 55 -61 l36 -22 -7 -77 c-6 -76 -6 -76
-62 -133 l-56 -58 -77 0 c-94 0 -78 11 -366 -267 l-213 -205 0 -224 0 -225
-70 -74 c-38 -41 -70 -82 -70 -92 -1 -10 -1 -129 0 -265 1 -205 -1 -248 -13
-248 -35 0 -138 64 -191 120 -79 82 -115 163 -126 282 -5 51 -10 407 -10 790
l0 697 225 212 c247 233 231 208 226 336 -3 69 4 103 23 103 23 0 76 62 87
103 46 170 -170 283 -284 148 -56 -66 -48 -154 19 -218 l44 -43 0 -84 0 -84
-164 -156 c-90 -86 -167 -156 -170 -156 -4 0 -6 199 -4 443 l3 442 27 50 c28
55 96 123 148 150 75 39 104 45 205 42 85 -2 109 -7 160 -30z m-105 -417 c53
-53 -16 -134 -72 -83 -25 23 -23 68 4 87 30 21 44 20 68 -4z m-950 -5 c18 -22
15 -66 -6 -82 -54 -40 -116 17 -84 78 13 23 72 26 90 4z m1840 -645 c31 -17
42 -45 28 -75 -22 -49 -91 -41 -104 12 -6 21 -1 31 20 50 31 26 31 26 56 13z
m82 -887 c37 -33 10 -93 -43 -93 -45 0 -65 56 -32 92 20 22 51 23 75 1z
m-2738 -159 c19 -19 20 -25 4 -59 -21 -46 -79 -46 -100 -1 -24 55 53 103 96
60z"/>
<path d="M4042 6328 c-18 -6 -48 -28 -67 -49 -59 -66 -59 -152 1 -219 20 -22
44 -42 55 -45 18 -6 19 -18 19 -193 l0 -188 243 -242 c237 -236 244 -242 284
-242 22 0 61 -3 87 -6 l46 -7 0 -88 0 -88 -58 59 -58 60 -195 0 -194 0 -203
203 -202 202 0 68 0 67 49 47 c36 35 51 59 56 86 17 89 -45 180 -130 193 -57
8 -130 -25 -162 -75 -44 -65 -25 -165 41 -217 l36 -29 0 -90 0 -89 235 -236
235 -235 157 -1 c87 -1 174 -2 194 -3 32 -1 45 -11 118 -91 l81 -91 0 -272 c0
-292 1 -297 51 -297 55 0 54 -5 54 484 0 248 -3 464 -8 479 -12 44 -60 67
-140 67 l-69 0 -66 62 c-37 34 -136 130 -219 212 l-153 151 0 170 0 170 34 22
c62 40 84 136 49 210 -31 67 -127 105 -201 81z m92 -117 c25 -27 17 -72 -15
-90 -24 -13 -29 -13 -53 2 -17 12 -26 26 -26 44 0 55 59 83 94 44z m-336 -404
c12 -24 11 -31 -2 -53 -21 -32 -69 -33 -90 -2 -20 29 -20 47 1 70 26 28 74 20
91 -15z"/>
<path d="M4343 5900 c-71 -29 -45 -140 33 -140 37 0 84 36 84 64 0 31 -24 65
-53 76 -35 12 -35 12 -64 0z"/>
<path d="M3530 5200 c-23 -23 -26 -76 -7 -101 49 -64 137 -34 137 47 0 62 -86
98 -130 54z"/>
<path d="M4042 4420 c-45 -42 -34 -106 23 -132 34 -15 80 6 95 43 32 76 -59
144 -118 89z"/>
<path d="M6084 6329 c-42 -12 -100 -77 -108 -122 -11 -59 10 -117 60 -163 l44
-41 0 -150 0 -149 -312 -294 c-171 -162 -329 -311 -350 -331 l-38 -36 0 -299
c0 -164 -5 -341 -10 -393 -11 -107 -2 -131 51 -131 58 0 59 8 59 401 l0 357
33 35 c17 19 160 155 317 302 157 147 302 284 323 306 l37 38 0 178 1 178 31
20 c55 35 73 69 73 140 0 76 -20 109 -85 143 -47 23 -75 26 -126 11z m96 -114
c7 -8 13 -26 13 -40 0 -14 -6 -32 -13 -40 -28 -33 -100 -6 -100 38 0 47 71 77
100 42z"/>
<path d="M5620 5663 c-54 -69 34 -159 107 -108 27 19 35 63 17 96 -25 49 -90
55 -124 12z"/>
<path d="M6200 4578 c-73 -49 -98 -128 -66 -203 12 -29 11 -32 -58 -108 -39
-43 -101 -98 -138 -123 -38 -24 -68 -50 -68 -58 0 -26 36 -46 84 -46 48 0 48
1 170 120 108 106 127 120 157 120 75 0 140 60 154 141 5 31 2 50 -17 86 -30
62 -65 85 -130 91 -44 3 -59 0 -88 -20z m118 -98 c28 -26 28 -42 -1 -76 -29
-33 -67 -28 -85 11 -16 35 -15 42 8 65 26 26 50 25 78 0z"/>
<path d="M875 2669 c-3 -8 -4 -246 -3 -529 l3 -515 250 0 c228 1 256 2 320 22
172 54 305 195 344 363 15 66 13 207 -4 275 -45 175 -180 316 -355 371 -75 23
-547 34 -555 13z m527 -222 c117 -57 183 -168 183 -307 -1 -140 -60 -241 -173
-297 -53 -26 -68 -28 -194 -31 l-138 -4 0 337 0 337 133 -4 c121 -3 137 -5
189 -31z"/>
<path d="M6545 2668 c-3 -7 -4 -245 -3 -528 l3 -515 75 -3 c41 -2 85 0 97 3
l23 5 -2 523 -3 522 -93 3 c-68 2 -94 -1 -97 -10z"/>
<path d="M8211 2568 c-216 -590 -338 -934 -332 -941 4 -4 52 -6 107 -5 l99 3
45 120 45 120 208 2 208 2 18 -42 c10 -23 28 -73 41 -112 12 -38 27 -76 33
-82 11 -15 202 -19 211 -5 5 8 -59 191 -252 722 l-118 325 -136 3 -136 3 -41
-113z m244 -293 c24 -66 52 -144 64 -172 l21 -53 -154 0 -153 0 59 163 c32 89
66 182 75 207 l17 45 14 -35 c8 -19 34 -89 57 -155z"/>
<path d="M9042 2153 l3 -528 100 0 100 0 0 525 0 525 -103 3 -102 3 2 -528z"/>
<path d="M2164 2369 c-63 -14 -144 -69 -186 -124 -117 -154 -99 -408 38 -534
71 -66 142 -94 250 -99 108 -5 181 13 258 62 88 56 88 59 23 123 l-56 57 -38
-27 c-55 -38 -86 -47 -159 -47 -101 0 -170 46 -194 130 l-9 30 262 2 262 3 -3
80 c-2 44 -9 103 -17 131 -17 61 -73 136 -124 168 -79 50 -202 68 -307 45z
m190 -168 c37 -21 64 -57 72 -98 l7 -33 -172 0 -171 0 11 27 c17 45 46 87 71
102 51 32 128 33 182 2z"/>
<path d="M2895 2362 c-69 -24 -110 -55 -139 -105 -48 -84 -42 -167 16 -233 39
-45 79 -65 198 -98 122 -35 142 -48 138 -89 -2 -26 -10 -36 -42 -51 -35 -17
-47 -18 -105 -8 -35 6 -93 25 -128 43 -72 37 -74 36 -117 -45 -35 -65 -33 -70
57 -114 152 -73 338 -70 446 8 80 59 112 177 72 266 -30 67 -81 100 -222 144
-70 22 -132 47 -139 55 -18 21 -5 60 25 73 52 24 171 6 230 -35 33 -22 43 -16
81 53 41 73 43 67 -36 108 -91 47 -243 60 -335 28z"/>
<path d="M3655 2366 c-144 -46 -230 -149 -256 -305 -30 -182 52 -346 209 -419
52 -25 67 -27 177 -26 103 0 127 3 170 23 49 22 135 86 135 99 -1 4 -22 31
-48 60 l-47 52 -68 -36 c-64 -34 -73 -36 -146 -33 -67 4 -83 8 -114 32 -43 32
-63 60 -72 99 l-7 28 263 2 264 3 -2 85 c-1 47 -8 104 -17 128 -36 100 -117
177 -220 207 -60 18 -166 18 -221 1z m180 -157 c31 -13 51 -31 74 -69 42 -70
42 -70 -149 -70 -186 0 -186 0 -156 58 44 84 141 118 231 81z"/>
<path d="M4570 2365 c-25 -8 -65 -31 -88 -50 l-42 -37 0 46 0 46 -95 0 -95 0
2 -372 3 -373 95 0 95 0 5 247 c5 228 7 249 25 274 61 80 201 85 252 8 16 -25
19 -58 23 -279 l5 -250 95 0 95 0 3 255 c1 153 -2 276 -8 306 -16 76 -58 137
-116 165 -60 29 -185 36 -254 14z"/>
<path d="M5404 2355 c-27 -13 -58 -38 -69 -55 l-20 -30 -5 47 -5 48 -98 3 -97
3 2 -373 3 -373 95 0 95 0 5 220 c5 208 6 222 28 257 33 53 80 78 160 86 l67
7 9 84 c10 97 7 101 -70 101 -34 0 -66 -8 -100 -25z"/>
<path d="M5910 2365 c-81 -26 -151 -75 -195 -140 -60 -88 -79 -158 -73 -265 9
-148 74 -252 193 -311 55 -27 80 -33 158 -37 189 -10 325 65 395 217 23 49 26
69 27 166 0 101 -2 115 -29 172 -30 66 -97 137 -157 168 -85 44 -229 58 -319
30z m171 -166 c90 -31 139 -101 139 -204 0 -136 -83 -214 -216 -203 -100 8
-166 87 -166 197 0 101 48 178 129 206 47 17 71 18 114 4z"/>
<path d="M7090 2373 c-44 -9 -125 -44 -156 -69 l-32 -23 23 -58 c13 -32 28
-59 34 -61 6 -2 41 8 77 23 116 47 238 33 280 -30 16 -25 32 -105 20 -105 -4
0 -23 7 -44 16 -52 22 -209 30 -267 14 -136 -38 -205 -175 -164 -323 23 -85
129 -147 249 -147 84 0 127 13 189 55 l50 35 3 -38 3 -37 90 0 90 0 0 271 0
270 -30 59 c-33 65 -92 117 -153 136 -40 12 -221 21 -262 12z m175 -424 c60
-17 78 -37 72 -82 -6 -47 -21 -65 -72 -88 -69 -32 -167 -19 -204 25 -20 24
-17 83 6 108 39 45 117 59 198 37z"/>
</g>
</svg>
